<svg width="36" height="36" viewBox="0 0 36 36" fill="none" xmlns="http://www.w3.org/2000/svg">
<circle cx="18" cy="18" r="18" fill="#353538"/>
<g opacity="0.5">
<path d="M27.3103 12.8784L23.1216 8.68873C22.9823 8.5494 22.8169 8.43888 22.6349 8.36348C22.4529 8.28808 22.2578 8.24927 22.0608 8.24927C21.8638 8.24927 21.6687 8.28808 21.4867 8.36348C21.3047 8.43888 21.1393 8.5494 21 8.68873L9.4397 20.25C9.2998 20.3888 9.18889 20.554 9.11341 20.736C9.03792 20.918 8.99938 21.1132 9.00001 21.3103V25.5C9.00001 25.8978 9.15804 26.2793 9.43935 26.5606C9.72065 26.8419 10.1022 27 10.5 27H14.6897C14.8868 27.0006 15.082 26.9621 15.264 26.8866C15.446 26.8111 15.6112 26.7002 15.75 26.5603L27.3103 15C27.4497 14.8607 27.5602 14.6953 27.6356 14.5133C27.711 14.3313 27.7498 14.1362 27.7498 13.9392C27.7498 13.7422 27.711 13.5471 27.6356 13.3651C27.5602 13.1831 27.4497 13.0177 27.3103 12.8784ZM10.8103 21L18.75 13.0603L20.3147 14.625L12.375 22.5637L10.8103 21ZM10.5 22.8103L13.1897 25.5H10.5V22.8103ZM15 25.1897L13.4353 23.625L21.375 15.6853L22.9397 17.25L15 25.1897ZM24 16.1897L19.8103 12L22.0603 9.74998L26.25 13.9387L24 16.1897Z" fill="white"/>
</g>
</svg>
