<svg width="18" height="19" viewBox="0 0 18 19" fill="none" xmlns="http://www.w3.org/2000/svg">
<path fill-rule="evenodd" clip-rule="evenodd" d="M10.2497 2.5H7.74973C7.58397 2.5 7.425 2.56585 7.30779 2.68306C7.19057 2.80027 7.12473 2.95924 7.12473 3.125V3.75H10.8747V3.125C10.8747 2.95924 10.8089 2.80027 10.6917 2.68306C10.5745 2.56585 10.4155 2.5 10.2497 2.5ZM12.7497 3.75V3.125C12.7497 2.46196 12.4863 1.82607 12.0175 1.35723C11.5487 0.888392 10.9128 0.625 10.2497 0.625H7.74973C7.08669 0.625 6.4508 0.888392 5.98196 1.35723C5.51312 1.82607 5.24973 2.46196 5.24973 3.125V3.75H1.81348C1.56484 3.75 1.32638 3.84877 1.15056 4.02459C0.974748 4.2004 0.875977 4.43886 0.875977 4.6875C0.875977 4.93614 0.974748 5.1746 1.15056 5.35041C1.32638 5.52623 1.56484 5.625 1.81348 5.625H2.20348L2.59973 15.1562C2.64004 16.1231 3.05252 17.0368 3.75092 17.7066C4.44933 18.3763 5.37959 18.7502 6.34723 18.75H11.6535C12.6209 18.7499 13.5508 18.3759 14.249 17.7062C14.9471 17.0364 15.3594 16.1228 15.3997 15.1562L15.7972 5.625H16.1872C16.4359 5.625 16.6743 5.52623 16.8501 5.35041C17.026 5.1746 17.1247 4.93614 17.1247 4.6875C17.1247 4.43886 17.026 4.2004 16.8501 4.02459C16.6743 3.84877 16.4359 3.75 16.1872 3.75H12.7497ZM13.9197 5.625H4.07973L4.47348 15.0775C4.49348 15.561 4.69965 16.0181 5.04887 16.3531C5.39808 16.6881 5.8633 16.8751 6.34723 16.875H11.6535C12.1372 16.8748 12.6021 16.6876 12.951 16.3526C13.3 16.0177 13.506 15.5608 13.526 15.0775L13.9197 5.625ZM6.18723 8.125V14.375C6.18723 14.6236 6.286 14.8621 6.46181 15.0379C6.63763 15.2137 6.87609 15.3125 7.12473 15.3125C7.37337 15.3125 7.61182 15.2137 7.78764 15.0379C7.96345 14.8621 8.06223 14.6236 8.06223 14.375V8.125C8.06223 7.87636 7.96345 7.6379 7.78764 7.46209C7.61182 7.28627 7.37337 7.1875 7.12473 7.1875C6.87609 7.1875 6.63763 7.28627 6.46181 7.46209C6.286 7.6379 6.18723 7.87636 6.18723 8.125ZM10.8747 7.1875C11.1234 7.1875 11.3618 7.28627 11.5376 7.46209C11.7135 7.6379 11.8122 7.87636 11.8122 8.125V14.375C11.8122 14.6236 11.7135 14.8621 11.5376 15.0379C11.3618 15.2137 11.1234 15.3125 10.8747 15.3125C10.6261 15.3125 10.3876 15.2137 10.2118 15.0379C10.036 14.8621 9.93723 14.6236 9.93723 14.375V8.125C9.93723 7.87636 10.036 7.6379 10.2118 7.46209C10.3876 7.28627 10.6261 7.1875 10.8747 7.1875Z" fill="#FF4A4A"/>
</svg>
