<svg width="94" height="35" viewBox="0 0 94 35" fill="none" xmlns="http://www.w3.org/2000/svg">
<rect x="0.25" y="0.25" width="93.5" height="34.5" rx="17.25" stroke="white" stroke-width="0.5"/>
<path d="M18.9473 11.9922C18.9405 13.6191 20.9298 15.1436 23.336 15.4648L22.8302 16.5312C20.8272 16.21 19.0704 15.1709 18.2706 13.7285C17.4708 15.1709 15.7139 16.21 13.7247 16.5312L13.2052 15.4648C15.6046 15.1436 17.587 13.6396 17.5938 11.9922V11.3223H18.9473V11.9922ZM12.672 18.8008V17.7344H23.8419V18.8008H18.8653V23.1621H17.5938V18.8008H12.672ZM34.7045 10.9121V18.1992H33.4056V15.0957H31.1224V14.0293H33.4056V10.9121H34.7045ZM24.4916 17.0918C26.392 16.4287 27.5609 14.7744 27.5541 13.0859V12.8125H24.9017V11.7598H31.5052V12.8125H28.8802V13.0723C28.8734 14.624 29.9808 16.1348 31.8334 16.7637L31.1634 17.7891C29.7894 17.3174 28.7777 16.333 28.2445 15.123C27.7113 16.4902 26.638 17.5908 25.1752 18.1309L24.4916 17.0918ZM26.4603 20.8516C26.4535 19.3955 28.0257 18.5479 30.6029 18.541C33.1664 18.5479 34.7386 19.3955 34.7455 20.8516C34.7386 22.3076 33.1664 23.1553 30.6029 23.1621C28.0257 23.1553 26.4535 22.3076 26.4603 20.8516ZM27.7455 20.8516C27.7386 21.6787 28.805 22.1504 30.6029 22.1367C32.3871 22.1504 33.4535 21.6787 33.4603 20.8516C33.4535 20.0176 32.3871 19.5459 30.6029 19.5527C28.805 19.5459 27.7386 20.0176 27.7455 20.8516ZM45.8541 10.9121V15.875H47.8229V16.9551H45.8541V23.1621H44.569V10.9121H45.8541ZM36.2428 13.8926V12.8262H39.2643V11.0762H40.5631V12.8262H43.5026V13.8926H36.2428ZM36.8717 17.6387C36.8717 15.9707 38.1569 14.7949 39.9205 14.7949C41.6774 14.7949 42.9625 15.9707 42.9694 17.6387C42.9625 19.3203 41.6774 20.4893 39.9205 20.4961C38.1569 20.4893 36.8717 19.3203 36.8717 17.6387ZM38.1159 17.6387C38.109 18.7051 38.8746 19.416 39.9205 19.4023C40.9596 19.416 41.7184 18.7051 41.7252 17.6387C41.7184 16.5928 40.9596 15.8682 39.9205 15.8613C38.8746 15.8682 38.109 16.5928 38.1159 17.6387ZM58.3163 10.9121V23.1621H57.0038V10.9121H58.3163ZM48.2538 19.8809C51.5077 18.3291 53.1005 16.1211 53.3534 13.2637H48.8417V12.2246H54.6659C54.6659 15.8135 53.1415 18.917 48.9374 20.9336L48.2538 19.8809Z" fill="white"/>
<g clip-path="url(#clip0_162_6497)">
<path d="M77 12.5L82 18L77 23.5" stroke="white" stroke-width="0.809524" stroke-linecap="round"/>
</g>
<defs>
<clipPath id="clip0_162_6497">
<rect width="18" height="18" fill="white" transform="translate(64 8.5)"/>
</clipPath>
</defs>
</svg>
