<svg width="86" height="86" viewBox="0 0 86 86" fill="none" xmlns="http://www.w3.org/2000/svg">
<circle cx="43" cy="43" r="43" fill="#FFD1D1"/>
<path d="M47.375 58.75C47.375 59.6153 47.1184 60.4612 46.6377 61.1806C46.157 61.9001 45.4737 62.4608 44.6742 62.792C43.8748 63.1231 42.9951 63.2097 42.1465 63.0409C41.2978 62.8721 40.5183 62.4554 39.9064 61.8436C39.2946 61.2317 38.8779 60.4522 38.7091 59.6035C38.5403 58.7549 38.6269 57.8752 38.958 57.0758C39.2892 56.2763 39.8499 55.5931 40.5694 55.1123C41.2888 54.6316 42.1347 54.375 43 54.375C44.1603 54.375 45.2731 54.8359 46.0936 55.6564C46.9141 56.4769 47.375 57.5897 47.375 58.75ZM43 50C43.6962 50 44.3639 49.7234 44.8562 49.2312C45.3484 48.7389 45.625 48.0712 45.625 47.375V25.5C45.625 24.8038 45.3484 24.1361 44.8562 23.6438C44.3639 23.1516 43.6962 22.875 43 22.875C42.3038 22.875 41.6361 23.1516 41.1438 23.6438C40.6516 24.1361 40.375 24.8038 40.375 25.5V47.375C40.375 48.0712 40.6516 48.7389 41.1438 49.2312C41.6361 49.7234 42.3038 50 43 50Z" fill="#FF4A4A"/>
</svg>
