<svg width="20" height="19" viewBox="0 0 20 19" fill="none" xmlns="http://www.w3.org/2000/svg">
<g id="ic:round-arrow-back-ios">
<path id="Vector" d="M17.1331 5.84244C17.2253 5.93436 17.2984 6.04356 17.3483 6.16379C17.3981 6.28401 17.4238 6.4129 17.4238 6.54306C17.4238 6.67323 17.3981 6.80211 17.3483 6.92234C17.2984 7.04256 17.2253 7.15176 17.1331 7.24369L10.5544 13.8224C10.4811 13.8958 10.3941 13.9541 10.2983 13.9938C10.2026 14.0335 10.0999 14.054 9.99623 14.054C9.89254 14.054 9.78988 14.0335 9.69411 13.9938C9.59834 13.9541 9.51134 13.8958 9.4381 13.8224L2.85935 7.24369C2.47143 6.85577 2.47143 6.23035 2.85935 5.84244C3.24727 5.45452 3.87268 5.45452 4.2606 5.84244L10.0002 11.5741L15.7398 5.83452C16.1198 5.45452 16.7531 5.45452 17.1331 5.84244Z" fill="white"/>
</g>
</svg>
