<svg width="20" height="19" viewBox="0 0 20 19" fill="none" xmlns="http://www.w3.org/2000/svg">
<g id="ic:round-arrow-back-ios">
<path id="Vector" d="M6.34219 2.36714C6.43412 2.27499 6.54332 2.20187 6.66354 2.15198C6.78377 2.1021 6.91265 2.07642 7.04282 2.07642C7.17298 2.07642 7.30187 2.1021 7.42209 2.15198C7.54232 2.20187 7.65152 2.27499 7.74344 2.36714L14.3222 8.94589C14.3956 9.01913 14.4538 9.10613 14.4935 9.2019C14.5333 9.29767 14.5537 9.40033 14.5537 9.50402C14.5537 9.6077 14.5333 9.71037 14.4935 9.80614C14.4538 9.90191 14.3956 9.9889 14.3222 10.0621L7.74344 16.6409C7.35553 17.0288 6.73011 17.0288 6.34219 16.6409C5.95428 16.253 5.95428 15.6276 6.34219 15.2396L12.0739 9.50006L6.33428 3.76048C5.95428 3.38048 5.95428 2.74714 6.34219 2.36714Z" fill="#8C8C8E"/>
</g>
</svg>
