<svg width="20" height="19" viewBox="0 0 20 19" fill="none" xmlns="http://www.w3.org/2000/svg">
<g id="ic:round-arrow-back-ios">
<path id="Vector" d="M17.1331 13.1576C17.2253 13.0656 17.2984 12.9564 17.3483 12.8362C17.3981 12.716 17.4238 12.5871 17.4238 12.4569C17.4238 12.3268 17.3981 12.1979 17.3483 12.0777C17.2984 11.9574 17.2253 11.8482 17.1331 11.7563L10.5544 5.17756C10.4811 5.10417 10.3941 5.04595 10.2983 5.00622C10.2026 4.96649 10.0999 4.94604 9.99623 4.94604C9.89254 4.94604 9.78988 4.96649 9.69411 5.00622C9.59834 5.04595 9.51134 5.10417 9.4381 5.17756L2.85935 11.7563C2.47143 12.1442 2.47143 12.7696 2.85935 13.1576C3.24727 13.5455 3.87268 13.5455 4.2606 13.1576L10.0002 7.4259L15.7398 13.1655C16.1198 13.5455 16.7531 13.5455 17.1331 13.1576Z" fill="#8C8C8E"/>
</g>
</svg>
